<svg width="1080" height="1080" viewBox="0 0 1080 1080" xmlns="http://www.w3.org/2000/svg" xmlns:xlink="http://www.w3.org/1999/xlink">
    <g id="g1">
        <path id="island" fill="#231f20" stroke="none" d="M 962.409058 401.891357 C 898.464966 339.385132 808.228394 314.140991 722.295715 334.718323 C 771.042603 275.774841 804.432007 205.069336 819.333496 129.23114 C 821.031067 119.369446 818.956909 109.214661 813.544312 100.888062 C 809.175293 92.633789 800.89978 87.356445 791.766052 87 C 659.441772 94.085815 587.766174 187.051025 549.722961 272.930481 C 483.836517 149.354736 336.901489 118.460815 263.296173 111.091614 C 253.261963 110.308838 243.338867 113.675659 235.728622 120.444824 C 229.223801 126.210266 225.919891 134.914734 226.907013 143.686096 C 242.509476 238.361023 305.305756 317.665649 392.312256 352.574524 C 258.60968 350.307007 158.815186 461.695251 115.809807 520.93219 C 110.20488 529.178711 107.931763 539.339844 109.469276 549.27533 C 110.35704 558.430603 115.776512 566.467041 123.804398 570.532593 C 196.200272 600.583984 277.958984 595.160828 345.99881 555.794189 C 323.154938 600.904419 306.899384 649.228394 297.755585 699.210083 C 296.297516 709.182617 298.670258 719.347168 304.371826 727.553101 C 309.067352 735.456543 317.41803 740.28595 326.425842 740.307495 C 411.413147 734.643311 488.327026 686.582886 532.355408 611.630005 C 534.836487 622.116943 536.490479 633.170776 538.695984 644.224548 C 540.901306 655.27832 541.728394 674.835083 543.658081 690.14032 C 545.58783 705.445557 543.658081 721.601074 543.658081 737.189819 C 543.658081 752.778442 543.658081 768.08374 540.625732 783.105469 C 537.593262 798.127319 537.317566 811.448608 535.112183 826.187012 C 532.906738 840.925354 530.149963 852.546021 527.94458 864.450073 C 526.290527 871.819336 524.636536 878.338196 522.982422 884.857056 C 443.254883 902.036987 365.059662 926.022705 289.209656 956.565063 C 280.452118 959.76355 275.296051 969.076172 277.092133 978.451172 C 278.888184 987.826111 287.094086 994.4328 296.377228 993.977905 L 886.322632 993.977905 C 893.376953 994.116943 899.90979 990.171936 903.227051 983.769653 C 906.54425 977.36731 906.084045 969.592285 902.036194 963.650818 C 854.34436 896.194336 774.949829 870.685547 686.733643 868.418152 C 686.733643 861.04895 688.387695 853.112854 688.939087 845.176819 C 688.939087 828.454407 691.420166 810.598267 691.420166 791.891846 L 691.420166 735.20575 C 691.420166 716.215942 687.836365 695.525452 685.906616 675.685303 C 683.976929 655.845215 679.841736 635.721558 674.328247 616.448364 C 669.787781 597.20459 664.079346 578.272156 657.236389 559.762207 C 651.228271 542.128662 643.948608 524.980774 635.458008 508.461304 L 630.771545 499.391541 C 755.652466 556.077637 890.733521 490.888611 952.760437 452.34198 C 961.095642 446.739441 966.941284 437.978882 969.025269 427.96698 C 971.573181 418.68457 969.042664 408.711243 962.409058 401.891357 Z"/>
        <path id="code" fill="#ffffff" stroke="none" d="M 476.641541 333.294373 L 499.371796 324.543152 L 582.764282 513.437317 L 560.033997 522.188599 L 476.641541 333.294373 Z M 420.933594 392.238892 L 445.944855 396.790833 L 437.581543 494.029968 L 532.49585 508.405334 L 531.062927 533.82489 L 410.334351 515.532532 L 420.933594 392.238892 Z M 527.124207 309.748169 L 649.209106 329.97052 L 637.075317 451.472656 L 612.091064 446.574463 L 621.629578 351.05835 L 525.349121 335.108276 L 527.124207 309.748169 Z"/>
    </g>
</svg>
